<?xml version="1.0" encoding="UTF-8"?>
<svg id="Capa_2" data-name="Capa 2" xmlns="http://www.w3.org/2000/svg" xmlns:xlink="http://www.w3.org/1999/xlink" viewBox="0 0 244.49 112.92">
  <defs>
    <style>
      .cls-1 {
        fill: url(#Degradado_sin_nombre_755);
      }

      .cls-2 {
        fill: #e4e7ed;
      }

      .cls-3 {
        fill: url(#Nueva_muestra_de_degradado_3);
      }

      .cls-4 {
        fill: url(#Nueva_muestra_de_degradado_3-2);
      }

      .cls-5 {
        fill: url(#Degradado_sin_nombre_750);
      }

      .cls-6 {
        fill: #d3d8e1;
      }

      .cls-7 {
        fill: url(#Nueva_muestra_de_degradado_4-2);
      }

      .cls-8 {
        fill: #2b307c;
      }

      .cls-9 {
        letter-spacing: -.05em;
      }

      .cls-10 {
        fill: url(#Nueva_muestra_de_degradado_4);
      }

      .cls-11 {
        fill: url(#Nueva_muestra_de_degradado_3-3);
      }

      .cls-12 {
        fill: #1c97d4;
      }

      .cls-13 {
        fill: url(#Nueva_muestra_de_degradado_4-3);
      }

      .cls-14 {
        fill: #0099df;
        font-family: FranklinGothic-Medium, 'Franklin Gothic Medium';
        font-size: 42.49px;
        font-weight: 500;
      }
    </style>
    <linearGradient id="Nueva_muestra_de_degradado_3" data-name="Nueva muestra de degradado 3" x1="120.9" y1="21.31" x2="125.2" y2="21.31" gradientUnits="userSpaceOnUse">
      <stop offset="0" stop-color="#0095c4" stop-opacity=".05"/>
      <stop offset="1" stop-color="#0098bf"/>
      <stop offset="1" stop-color="#0095c4" stop-opacity="0"/>
    </linearGradient>
    <linearGradient id="Nueva_muestra_de_degradado_4" data-name="Nueva muestra de degradado 4" x1="105.62" y1="21.29" x2="108.36" y2="21.29" gradientUnits="userSpaceOnUse">
      <stop offset="0" stop-color="#1e89af"/>
      <stop offset=".87" stop-color="#54aac4" stop-opacity=".34"/>
      <stop offset="1" stop-color="#0095c4" stop-opacity="0"/>
    </linearGradient>
    <linearGradient id="Nueva_muestra_de_degradado_3-2" data-name="Nueva muestra de degradado 3" x1="105.89" y1="39.65" x2="110.06" y2="39.65" xlink:href="#Nueva_muestra_de_degradado_3"/>
    <linearGradient id="Nueva_muestra_de_degradado_4-2" data-name="Nueva muestra de degradado 4" x1="97.93" y1="30.5" x2="105.19" y2="30.5" xlink:href="#Nueva_muestra_de_degradado_4"/>
    <linearGradient id="Nueva_muestra_de_degradado_4-3" data-name="Nueva muestra de degradado 4" x1="120.99" y1="40.25" x2="124.58" y2="40.25" xlink:href="#Nueva_muestra_de_degradado_4"/>
    <linearGradient id="Nueva_muestra_de_degradado_3-3" data-name="Nueva muestra de degradado 3" x1="126.12" y1="30.92" x2="132.83" y2="30.92" xlink:href="#Nueva_muestra_de_degradado_3"/>
    <linearGradient id="Degradado_sin_nombre_755" data-name="Degradado sin nombre 755" x1="130.03" y1="103.69" x2="230.37" y2="103.69" gradientUnits="userSpaceOnUse">
      <stop offset="0" stop-color="#fff" stop-opacity=".4"/>
      <stop offset="0" stop-color="#fefefe" stop-opacity=".4"/>
      <stop offset=".12" stop-color="#b8def1" stop-opacity=".59"/>
      <stop offset=".25" stop-color="#80c4e6" stop-opacity=".74"/>
      <stop offset=".4" stop-color="#53b0de" stop-opacity=".85"/>
      <stop offset=".55" stop-color="#34a2d8" stop-opacity=".94"/>
      <stop offset=".73" stop-color="#2199d5" stop-opacity=".98"/>
      <stop offset="1" stop-color="#1c97d4"/>
    </linearGradient>
    <linearGradient id="Degradado_sin_nombre_750" data-name="Degradado sin nombre 750" x1="0" y1="103.54" x2="104.07" y2="103.54" gradientUnits="userSpaceOnUse">
      <stop offset="0" stop-color="#1c97d4"/>
      <stop offset=".33" stop-color="#2099d4" stop-opacity=".99"/>
      <stop offset=".5" stop-color="#31a0d8" stop-opacity=".94"/>
      <stop offset=".64" stop-color="#4daddd" stop-opacity=".87"/>
      <stop offset=".76" stop-color="#75bfe4" stop-opacity=".76"/>
      <stop offset=".87" stop-color="#a8d7ee" stop-opacity=".63"/>
      <stop offset=".97" stop-color="#e7f4fa" stop-opacity=".46"/>
      <stop offset="1" stop-color="#fff" stop-opacity=".4"/>
    </linearGradient>
  </defs>
  <g id="Capa_1-2" data-name="Capa 1">
    <path class="cls-6" d="M216.52,28.39l-.5,2.14-.82-2.14c.44,0,.88,0,1.31,0Z"/>
    <rect class="cls-6" x="243.22" width="1.27" height="1.18"/>
    <path class="cls-6" d="M241.76,1.02c-.11.21-.56-.18-.32-.61.11-.21.56.18.32.61Z"/>
    <path class="cls-6" d="M243.07,21.18c.36.33-.3.94-.65.61s.3-.94.65-.61Z"/>
    <path class="cls-2" d="M218.76,9.88c.32.14-.65.59-.98.46.29-.33.5-.56.98-.46Z"/>
    <g>
      <g>
        <path class="cls-12" d="M126.68,7.58c-1.55,1.11-8.53,2.54-8.93,3.95-.31,1.08-.06,2.79-.14,3.95,1.85-.7,10.18-4.44,9.35-.22-1.58,1.03-9.11,3.13-9.49,4.17l.28,8,.7.11c1.34-.76,8.17-2.61,8.79-3.4,1.57-1.98-2.11-8.23,3.21-8.44,3.02,1.18,1.28,4.42,1.95,6.58.58-.69,3.77-1.24,4.05-1.86.72-1.61-1.57-9.15,2.93-8.66,2.79.31,1.17,5.47,1.95,7.02,2.36-.73,9.07-5.09,9.07-.66l-6.84,2.85c-.26.33.72.54.98.66,2.26,1.01,4.68.78,5.58,2.85-.33,3.93-8.69-1.58-11.03-1.53-.37,0-4.86,1.85-4.89,2.08.19.36.74.28.84.33,1.99,1.02,7.35,1.74,5.86,4.38-3.75,1.14-8.25-3.15-11.31-3.07-.6.02-10.73,3.85-10.47,4.28.18.23.69.04.84.11.89.42,8.84,3.46,9.35,3.51,2.8.27,11.13-5.66,12.14-2.08.23.81-.11,1.04-.56,1.64-.97-.05-6.93,2.01-6.98,2.3.19.36.74.28.84.33.89.46,4.2,1.82,5.16,1.75,1.88-.13,11.07-6.21,10.47-1.1-1.82,1.29-4.54,1.95-6.84,2.63-.51.71.77.33.98.44,2.38,1.22,7,2.21,5.02,4.6-1.47,1.23-7.88-2.56-8.51-2.19-.5,2.42,1.09,6.99-4.05,5.04-1.16-1.78.04-5.63-.7-6.58-.11-.15-3.47-1.02-3.91-1.53-1.32.33.9,5.16-1.67,5.7-4.08.85-3.08-2.66-3.21-4.38.33-.63.5-3.14.28-3.62-.19-.4-9.09-3.9-9.63-3.84-.37.04-.47.1-.7.33-.27.47.28.52.28.55-.23,2.52.11,5.05,0,7.56,2.08,1.66,10.75,2.69,8.37,5.81-.99-.03-1.95.02-2.93-.22s-5.05-2.64-5.44-1.53c-.07.2-.08,2.83,0,2.96.42.73,11.73,2.95,8.37,5.59-2.91.18-5.41-1.28-7.96-2.19-.6-.08-.33.3-.42.44-1.18,1.91,2.79,4.63-4.47,3.62-.17-.19.13-2.79,0-3.4-.06-.29.22-.71-.42-.66-2.61.8-5.79,3.06-8.51,1.97-.96-3.11,8.05-4.05,8.65-5.15.1-.19.03-2.3,0-2.74,0-.04.54-.32.28-.77-2.97-.08-5.46,2.91-8.65,1.86-1.93-3.2,7.66-4.11,8.37-5.37.26-.46.47-7.38.28-8-.06-.19.14-.53-.14-.66-1.15.42-10.03,3.34-10.33,3.73-.26.34-.31,2.21.14,2.63-.19,1.85,1.08,5.92-2.37,5.7-3.04-.19-1.49-3.98-2.09-5.92-.06-.19.57-.3-.14-.66-.59.36-4.75,1.61-4.89,1.86-1.02,1.85,2.5,10.09-3.91,6.91-.71-1.51.2-3.26-.28-4.6-.14-.39.12-.52-.7-.44-2.4,1.03-5.2,2.74-7.96,2.19-2.3-2.64,3.95-3.49,5.86-4.38.32-.15.82-.29.42-.66l-6-2.19c-.82-1.34-.79-1.8.98-2.63,2.19-.17,7.91,3.25,9.49,3.29.41.01,4.49-1.49,4.89-1.75.1-.07.45-.15.56-.33l-6.7-2.74c-.44-1.21-.03-2.38,1.81-2.41,1.58-.02,8.02,3.47,9.21,3.51s8.6-3.62,10.47-3.95l.56-.11c-1.46-.59-10.39-4.52-11.31-4.49-1.99.05-12.28,6.52-10.47,1.1,1.43-1.17,3.88-1.54,5.58-2.41l.56-.33c-1.5-.41-3.84-1.99-5.44-1.86-2.08.16-11.3,5.98-10.47.88.01-.07-.02-.15,0-.22,1.11-.43,2.22-.91,3.35-1.32.42-.15.91-.24,1.4-.44.62-.26,2.44-.39,1.54-1.1-1.17-.92-5.48-1.68-6.84-2.85-1.3-5.68,8.13.62,8.79.22.42-1.77-.88-6.66,3.07-6.14,3.41.45.75,7.04,2.23,8.55.12.12,3.47,1.41,3.63,1.32.5-1.51-.8-5.23,1.95-5.7,5.04-.86,2.02,5.85,2.93,7.56.22.42,9.22,3.63,10.33,3.73-.53-1.85.72-7.03,0-8.44-.55-1.07-7.06-3.04-8.65-3.95-1.83-4.52,6.22-.9,8.24.22,1.03-1.19.29-2.58-.14-3.51-.08-.17.54-.3.14-.66-1.05-.92-7-2.15-8.51-3.29-.36-.94-.05-2.39,1.26-2.63s5.53,2.26,7.12,2.63h.28c-.3-8.97,6.12-8.15,5.16.22,1.79-1.13,10.58-4.83,8.79-.22Z"/>
        <path class="cls-8" d="M111.61,30.82c-2.56.01-8.47-3.59-10.19-3.73s-6.34,2.47-8.1,2.85c-2.74.6-5.42-.6-2.93-2.63-1.81,5.43,8.47-1.05,10.47-1.1.92-.02,9.85,3.91,11.31,4.49l-.56.11Z"/>
        <path class="cls-8" d="M140.92,29.73c-1.53,2.72-8.47-1.98-10.47-2.19-1.73-.18-8.3,2.92-10.47,3.51-.15-.07-.66.12-.84-.11-.26-.42,9.87-4.26,10.47-4.28,3.06-.08,7.55,4.21,11.31,3.07Z"/>
        <path class="cls-3" d="M124.59,18.55c1.78,1.6-.6,6.04-3.07,5.48-.85-.19-.65-3.03-.42-3.62s2.9-1.25,3.49-1.86Z"/>
        <path class="cls-8" d="M95.97,24.9c-1.17.14-3.53-1.49-4.05-1.53-1.45-.14-7.08,3.01-9.21,3.07-.35.01-2.5-.6-2.65-.99s-.07-1.57.56-1.86c-.83,5.1,8.39-.72,10.47-.88,1.61-.12,3.95,1.45,5.44,1.86l-.56.33Z"/>
        <path class="cls-10" d="M106,18.98c2.29.77,2.66,2.05,2.16,4.6-1.96-.18-3.21-2.42-2.16-4.6Z"/>
        <path class="cls-4" d="M109.23,38.27c.35.03.47.06.7.21.51,1.72-.51,1.98-3.49,2.56-1.68-1.01.79-2.97,2.79-2.77Z"/>
        <path class="cls-8" d="M150.13,24.47c.06.13.57.93.56.99-.92,3.33-8.99-1.45-10.75-1.64-1.48-.16-3.54.95-4.89,1.53-.1-.05-.65.03-.84-.33.03-.23,4.51-2.08,4.89-2.08,2.33-.04,10.7,5.46,11.03,1.53Z"/>
        <path class="cls-7" d="M101.14,29.51c.57-.03,4.16.81,4.05,1.07-2.97,1.01-4.39,1.38-7.26,0,0-.11,3.03-1.06,3.21-1.07Z"/>
        <path class="cls-13" d="M121.21,38.28c2.82.4,4.21,1.47,2.86,3.95-3.05-.27-3.42-1.64-2.86-3.95Z"/>
        <path class="cls-11" d="M129.05,29.73c.51-.02,3.89,1.03,3.77,1.43-2.63,1.34-4.19,1.26-6.7-.22.38-.21,2.77-1.2,2.93-1.21Z"/>
        <path class="cls-8" d="M149.57,45.08c-.06.08.07.47-.42.66-1.36,1.07-7.32-2.5-7.82-2.19.96,2.14-1.73,8.36-4.33,4.38,5.14,1.95,3.55-2.62,4.05-5.04.63-.37,7.04,3.42,8.51,2.19Z"/>
        <path class="cls-8" d="M127.52,41.13c-.07-.86.35-2.97-.42-3.51l-9.35-3.07s-.55-.08-.28-.55c.23-.23.33-.28.7-.33.54-.06,9.45,3.44,9.63,3.84.22.48.05,2.99-.28,3.62Z"/>
        <path class="cls-8" d="M113.28,34.33l-9.91,3.51c-.65.68-.34,1.44-.42,2.19-.45-.42-.4-2.29-.14-2.63.3-.38,9.18-3.31,10.33-3.73.28.12.08.47.14.66Z"/>
        <path class="cls-8" d="M98.49,39.81c-.58.38-4.32,1.49-4.47,1.64-1.43,1.57,1.94,8.49-3.21,7.56-.71-.13-1.02-.58-1.26-1.1,6.41,3.18,2.89-5.06,3.91-6.91.14-.25,4.29-1.5,4.89-1.86.71.35.08.47.14.66Z"/>
        <path class="cls-8" d="M126.96,15.26c-.26,1.32-7.55,4.22-9.49,4.17.39-1.04,7.91-3.14,9.49-4.17Z"/>
        <path class="cls-8" d="M112.44,11.53c-2.17-.79-7.66-2.06-8.37-3.95,1.51,1.14,7.46,2.37,8.51,3.29.41.35-.22.48-.14.66Z"/>
        <path class="cls-8" d="M85.36,21.62c-.39-1.36-3.42-2.12-4.89-2.63.73-.54-.24-.54-.42-1.32,1.36,1.17,5.67,1.93,6.84,2.85.9.71-.92.84-1.54,1.1Z"/>
        <path class="cls-8" d="M113,18.77c-2.25-.29-8.05-2.45-8.65-3.95,1.6.91,8.11,2.87,8.65,3.95Z"/>
        <path class="cls-8" d="M117.75,11.53c.41-1.4,7.38-2.84,8.93-3.95-.53,1.38-6.95,3.53-8.93,3.95Z"/>
        <path class="cls-8" d="M113.28,53.19c-2.01.25-8.09,4.04-8.93,1.32,2.73,1.08,5.91-1.17,8.51-1.97.64-.05.36.36.42.66Z"/>
        <path class="cls-8" d="M113,46.61c-2.07-.09-7,3.37-8.37,1.1,3.19,1.05,5.68-1.94,8.65-1.86.26.45-.28.73-.28.77Z"/>
        <path class="cls-8" d="M89.27,43.32c-2.41.6-6.69,4.01-8.65,1.75,2.75.55,5.56-1.16,7.96-2.19.82-.08.56.05.7.44Z"/>
        <path class="cls-8" d="M126.12,47.93c-1.62,2.13-6.2-1.38-8.37-1.75.39-1.1,4.42,1.28,5.44,1.53s1.94.19,2.93.22Z"/>
        <path class="cls-8" d="M126.12,54.72c-2.02,1.59-6.31-.99-8.37-1.75.09-.14-.18-.51.42-.44,2.55.92,5.05,2.37,7.96,2.19Z"/>
        <path class="cls-8" d="M144.55,21.62c-.26-.11-1.23-.33-.98-.66l6.84-2.85c0,1.8-4.36,2.15-5.86,3.51Z"/>
        <path class="cls-8" d="M140.92,34.11c-1.01,1.35-4.47,1.74-6.14,2.63-.1-.05-.65.03-.84-.33.05-.3,6.01-2.35,6.98-2.3Z"/>
        <path class="cls-8" d="M96.25,36.74c-1.89-.99-5.47-1.23-6.14-3.07l6.7,2.74c-.1.18-.45.26-.56.33Z"/>
        <path class="cls-8" d="M144.55,40.47c-.21-.11-1.48.27-.98-.44,2.29-.69,5.02-1.35,6.84-2.63-.2,1.7-4.31,2.27-5.86,3.07Z"/>
        <path class="cls-8" d="M86.48,40.69c-1.96-1.19-4.38-.87-5.58-2.85l6,2.19c.4.37-.1.51-.42.66Z"/>
        <path class="cls-8" d="M83.97,22.05c-1.13.4-2.24.89-3.35,1.32.35-1.09,2.04-1.82,3.35-1.32Z"/>
      </g>
      <text class="cls-14" transform="translate(2.34 92.75) scale(1.35 1)"><tspan x="0" y="0">CLIM</tspan><tspan class="cls-9" x="91.15" y="0">A</tspan><tspan x="114.47" y="0">TIC</tspan></text>
      <path class="cls-1" d="M179.16,106.76h-44.19c-11.11-2.6,0-6.15,0-6.15h43.27s3.01,0,3.01,0h44.19c11.11,2.6,0,6.15,0,6.15h-43.27s-3.01,0-3.01,0Z"/>
      <path class="cls-5" d="M53.11,100.47h45.84c11.52,2.6,0,6.15,0,6.15H5.12c-11.52-2.6,0-6.15,0-6.15h47.99Z"/>
    </g>
  </g>
</svg>