<?xml version="1.0" encoding="UTF-8"?>
<svg id="Capa_2" data-name="Capa 2" xmlns="http://www.w3.org/2000/svg" xmlns:xlink="http://www.w3.org/1999/xlink" viewBox="0 0 113 96.02">
  <defs>
    <style>
      .cls-1 {
        fill: url(#Nueva_muestra_de_degradado_3);
      }

      .cls-2 {
        fill: url(#Nueva_muestra_de_degradado_3-2);
      }

      .cls-3 {
        fill: #fff;
      }

      .cls-4 {
        fill: url(#Nueva_muestra_de_degradado_4-2);
      }

      .cls-5 {
        fill: #2b307c;
      }

      .cls-6 {
        fill: url(#Nueva_muestra_de_degradado_4);
      }

      .cls-7 {
        fill: url(#Nueva_muestra_de_degradado_3-3);
      }

      .cls-8 {
        fill: url(#Nueva_muestra_de_degradado_4-3);
      }
    </style>
    <linearGradient id="Nueva_muestra_de_degradado_3" data-name="Nueva muestra de degradado 3" x1="65.42" y1="34.75" x2="72.3" y2="34.75" gradientUnits="userSpaceOnUse">
      <stop offset="0" stop-color="#0095c4" stop-opacity=".05"/>
      <stop offset="1" stop-color="#0098bf"/>
      <stop offset="1" stop-color="#0095c4" stop-opacity="0"/>
    </linearGradient>
    <linearGradient id="Nueva_muestra_de_degradado_4" data-name="Nueva muestra de degradado 4" x1="41.02" y1="34.71" x2="45.39" y2="34.71" gradientUnits="userSpaceOnUse">
      <stop offset="0" stop-color="#1e89af"/>
      <stop offset=".87" stop-color="#54aac4" stop-opacity=".34"/>
      <stop offset="1" stop-color="#0095c4" stop-opacity="0"/>
    </linearGradient>
    <linearGradient id="Nueva_muestra_de_degradado_3-2" data-name="Nueva muestra de degradado 3" x1="41.44" y1="66.4" x2="48.11" y2="66.4" xlink:href="#Nueva_muestra_de_degradado_3"/>
    <linearGradient id="Nueva_muestra_de_degradado_4-2" data-name="Nueva muestra de degradado 4" x1="28.73" y1="50.6" x2="40.33" y2="50.6" xlink:href="#Nueva_muestra_de_degradado_4"/>
    <linearGradient id="Nueva_muestra_de_degradado_4-3" data-name="Nueva muestra de degradado 4" x1="65.57" y1="67.45" x2="71.31" y2="67.45" xlink:href="#Nueva_muestra_de_degradado_4"/>
    <linearGradient id="Nueva_muestra_de_degradado_3-3" data-name="Nueva muestra de degradado 3" x1="73.77" y1="51.33" x2="84.47" y2="51.33" xlink:href="#Nueva_muestra_de_degradado_3"/>
  </defs>
  <g id="Capa_1-2" data-name="Capa 1">
    <g>
      <path class="cls-5" d="M111.22,75.77c-.1.13.12.8-.67,1.14-2.18,1.84-11.69-4.32-12.48-3.79,1.54,3.69-2.77,14.43-6.91,7.57,8.21,3.36,5.67-4.53,6.47-8.71,1.01-.63,11.25,5.91,13.6,3.79Z"/>
      <path class="cls-5" d="M53.26,89.78c-3.2.43-12.93,6.97-14.27,2.27,4.36,1.87,9.44-2.02,13.6-3.41,1.03-.09.57.63.67,1.14Z"/>
      <path class="cls-5" d="M73.77,92.43c-3.23,2.75-10.07-1.71-13.38-3.03.14-.24-.3-.89.67-.76,4.07,1.58,8.07,4.09,12.71,3.79Z"/>
      <path class="cls-5" d="M103.19,35.27c-.41-.2-1.97-.56-1.56-1.14l10.92-4.92c0,3.1-6.97,3.71-9.36,6.06Z"/>
      <path class="cls-5" d="M103.19,67.83c-.34-.19-2.37.47-1.56-.76,3.67-1.18,8.02-2.32,10.92-4.54-.32,2.94-6.88,3.92-9.36,5.3Z"/>
      <g>
        <path class="cls-3" d="M74.66,11.05c-2.48,1.91-13.62,4.39-14.27,6.81-.5,1.86-.09,4.82-.22,6.81,2.96-1.21,16.26-7.66,14.94-.38-2.53,1.77-14.54,5.4-15.16,7.19l.45,13.82,1.11.19c2.14-1.31,13.05-4.51,14.05-5.87,2.5-3.42-3.37-14.2,5.13-14.57,4.83,2.04,2.05,7.63,3.12,11.36.93-1.18,6.02-2.13,6.47-3.22,1.14-2.77-2.51-15.8,4.68-14.95,4.46.53,1.87,9.44,3.12,12.11,3.78-1.27,14.49-8.78,14.49-1.14l-10.92,4.92c-.41.57,1.15.94,1.56,1.14,3.61,1.75,7.47,1.35,8.92,4.92-.52,6.78-13.88-2.73-17.61-2.65-.6.01-7.76,3.19-7.8,3.6.3.62,1.17.48,1.34.57,3.18,1.75,11.74,3,9.36,7.57-5.99,1.98-13.18-5.44-18.06-5.3-.95.03-17.14,6.65-16.72,7.38.29.4,1.11.07,1.34.19,1.42.73,14.12,5.97,14.94,6.06,4.47.47,17.78-9.77,19.4-3.6.36,1.4-.17,1.8-.89,2.84-1.54-.08-11.07,3.46-11.15,3.97.3.62,1.18.48,1.34.57,1.41.79,6.71,3.15,8.25,3.03,3-.23,17.69-10.72,16.72-1.89-2.9,2.22-7.26,3.36-10.92,4.54-.81,1.23,1.22.57,1.56.76,3.79,2.11,11.19,3.82,8.03,7.95-2.35,2.12-12.59-4.42-13.6-3.79-.8,4.17,1.74,12.06-6.47,8.71-1.86-3.07.07-9.72-1.11-11.36-.18-.25-5.55-1.76-6.24-2.65-2.11.58,1.44,8.91-2.68,9.84-6.52,1.47-4.91-4.6-5.13-7.57.52-1.09.8-5.42.45-6.25-.3-.69-14.53-6.74-15.38-6.62-.59.08-.75.17-1.11.57-.43.81.45.9.45.95-.36,4.35.17,8.72,0,13.06,3.32,2.87,17.17,4.65,13.38,10.03-1.58-.06-3.11.04-4.68-.38s-8.07-4.55-8.69-2.65c-.12.35-.12,4.88,0,5.11.67,1.26,18.73,5.09,13.38,9.65-4.64.31-8.64-2.2-12.71-3.79-.96-.13-.53.52-.67.76-1.88,3.3,4.46,7.98-7.13,6.25-.27-.33.21-4.82,0-5.87-.1-.51.36-1.22-.67-1.14-4.16,1.39-9.24,5.28-13.6,3.41-1.53-5.37,12.85-7,13.82-8.89.17-.33.05-3.98,0-4.73,0-.07.86-.55.45-1.32-4.74-.14-8.72,5.03-13.82,3.22-3.09-5.53,12.23-7.1,13.38-9.27.42-.8.74-12.74.45-13.82-.09-.33.22-.92-.22-1.14-1.84.73-16.02,5.77-16.5,6.43-.42.58-.49,3.81.22,4.54-.3,3.19,1.73,10.22-3.79,9.84-4.86-.33-2.38-6.87-3.34-10.22-.09-.32.91-.52-.22-1.14-.94.63-7.58,2.78-7.8,3.22-1.62,3.19,4,17.41-6.24,11.92-1.13-2.61.32-5.62-.45-7.95-.22-.67.19-.9-1.11-.76-3.83,1.78-8.31,4.73-12.71,3.79-3.67-4.56,6.31-6.03,9.36-7.57.51-.26,1.31-.5.67-1.14l-9.59-3.79c-1.31-2.32-1.26-3.11,1.56-4.54,3.49-.3,12.64,5.6,15.16,5.68.65.02,7.17-2.57,7.8-3.03.17-.12.73-.25.89-.57l-10.7-4.73c-.71-2.09-.04-4.12,2.9-4.16,2.53-.04,12.81,6,14.71,6.06,1.88.06,13.73-6.25,16.72-6.81l.89-.19c-2.33-1.02-16.6-7.8-18.06-7.76-3.19.08-19.61,11.26-16.72,1.89,2.29-2.02,6.2-2.65,8.92-4.16l.89-.57c-2.39-.71-6.13-3.43-8.69-3.22-3.32.28-18.04,10.32-16.72,1.51.02-.12-.03-.26,0-.38,1.78-.74,3.55-1.58,5.35-2.27.67-.26,1.45-.41,2.23-.76.98-.44,3.89-.67,2.45-1.89-1.86-1.58-8.75-2.9-10.92-4.92-2.08-9.81,12.99,1.07,14.05.38.67-3.05-1.4-11.5,4.9-10.6,5.45.77,1.2,12.15,3.57,14.76.19.21,5.54,2.43,5.8,2.27.8-2.61-1.29-9.03,3.12-9.84,8.05-1.49,3.22,10.09,4.68,13.06.35.72,14.73,6.26,16.5,6.43-.85-3.19,1.15-12.13,0-14.57-.87-1.85-11.27-5.25-13.82-6.81-2.92-7.8,9.94-1.56,13.15.38,1.64-2.06.47-4.45-.22-6.06-.13-.3.87-.52.22-1.14-1.68-1.59-11.18-3.72-13.6-5.68-.57-1.63-.09-4.12,2.01-4.54s8.83,3.91,11.37,4.54h.45c-.47-15.49,9.77-14.07,8.25.38,2.87-1.96,16.9-8.35,14.05-.38Z"/>
        <path class="cls-5" d="M50.58,51.17c-4.08.02-13.52-6.2-16.27-6.43-2.62-.22-10.13,4.26-12.93,4.92-4.38,1.03-8.66-1.03-4.68-4.54-2.89,9.37,13.54-1.81,16.72-1.89,1.46-.04,15.73,6.74,18.06,7.76l-.89.19Z"/>
        <path class="cls-5" d="M97.4,49.28c-2.44,4.69-13.53-3.43-16.72-3.79-2.76-.31-13.25,5.05-16.72,6.06-.23-.12-1.05.21-1.34-.19-.42-.73,15.77-7.35,16.72-7.38,4.88-.15,12.07,7.27,18.06,5.3Z"/>
        <path class="cls-1" d="M71.31,29.98c2.84,2.77-.95,10.43-4.9,9.46-1.36-.33-1.04-5.23-.67-6.25s4.62-2.16,5.57-3.22Z"/>
        <path class="cls-5" d="M25.61,40.95c-1.87.24-5.65-2.57-6.47-2.65-2.32-.23-11.31,5.19-14.71,5.3-.57.02-3.99-1.03-4.24-1.7s-.11-2.71.89-3.22c-1.32,8.81,13.4-1.24,16.72-1.51,2.57-.21,6.3,2.51,8.69,3.22l-.89.57Z"/>
        <path class="cls-6" d="M41.63,30.73c3.66,1.32,4.25,3.53,3.45,7.95-3.14-.31-5.12-4.18-3.45-7.95Z"/>
        <path class="cls-2" d="M46.79,64.03c.57.06.75.1,1.11.36.82,2.96-.81,3.41-5.57,4.42-2.68-1.75,1.27-5.12,4.46-4.78Z"/>
        <path class="cls-5" d="M112.11,40.19c.09.23.91,1.61.89,1.7-1.46,5.74-14.35-2.51-17.17-2.84-2.36-.27-5.65,1.64-7.8,2.65-.16-.09-1.04.05-1.34-.57.04-.4,7.21-3.58,7.8-3.6,3.73-.08,17.09,9.43,17.61,2.65Z"/>
        <path class="cls-4" d="M33.86,48.9c.92-.05,6.64,1.39,6.47,1.85-4.75,1.74-7.01,2.38-11.59,0,0-.19,4.83-1.83,5.13-1.85Z"/>
        <path class="cls-8" d="M65.91,64.04c4.5.69,6.72,2.53,4.57,6.81-4.87-.47-5.46-2.83-4.57-6.81Z"/>
        <path class="cls-7" d="M78.45,49.28c.81-.04,6.21,1.78,6.02,2.46-4.2,2.32-6.69,2.18-10.7-.38.6-.37,4.42-2.07,4.68-2.08Z"/>
        <path class="cls-5" d="M75.99,68.96c-.11-1.48.55-5.12-.67-6.06l-14.94-5.3c0-.05-.88-.14-.45-.95.36-.39.52-.49,1.11-.57.86-.11,15.09,5.93,15.38,6.62.35.82.08,5.16-.45,6.25Z"/>
        <path class="cls-5" d="M53.26,57.23l-15.83,6.06c-1.04,1.17-.55,2.49-.67,3.79-.72-.73-.64-3.96-.22-4.54.47-.66,14.66-5.71,16.5-6.43.44.21.13.8.22,1.14Z"/>
        <path class="cls-5" d="M29.62,66.69c-.92.65-6.91,2.57-7.13,2.84-2.28,2.71,3.11,14.66-5.13,13.06-1.13-.22-1.62-1.01-2.01-1.89,10.24,5.49,4.62-8.74,6.24-11.92.22-.44,6.86-2.59,7.8-3.22,1.14.61.13.82.22,1.14Z"/>
        <path class="cls-5" d="M75.1,24.3c-.42,2.28-12.06,7.29-15.16,7.19.62-1.79,12.63-5.42,15.16-7.19Z"/>
        <path class="cls-5" d="M51.92,17.86c-3.47-1.36-12.24-3.55-13.38-6.81,2.42,1.96,11.92,4.09,13.6,5.68.65.61-.35.84-.22,1.14Z"/>
        <path class="cls-5" d="M8.67,35.27c-.62-2.35-5.47-3.66-7.8-4.54,1.16-.93-.39-.93-.67-2.27,2.17,2.02,9.06,3.34,10.92,4.92,1.44,1.23-1.47,1.45-2.45,1.89Z"/>
        <path class="cls-5" d="M52.81,30.35c-3.59-.49-12.86-4.23-13.82-6.81,2.55,1.57,12.95,4.96,13.82,6.81Z"/>
        <path class="cls-5" d="M60.39,17.86c.65-2.42,11.79-4.9,14.27-6.81-.85,2.38-11.1,6.09-14.27,6.81Z"/>
        <path class="cls-5" d="M52.81,78.42c-3.31-.15-11.19,5.81-13.38,1.89,5.1,1.81,9.08-3.35,13.82-3.22.42.78-.45,1.26-.45,1.32Z"/>
        <path class="cls-5" d="M14.91,72.75c-3.84,1.04-10.69,6.92-13.82,3.03,4.4.94,8.88-2,12.71-3.79,1.31-.14.89.09,1.11.76Z"/>
        <path class="cls-5" d="M73.77,80.69c-2.59,3.67-9.9-2.39-13.38-3.03.63-1.9,7.06,2.21,8.69,2.65s3.1.32,4.68.38Z"/>
        <path class="cls-5" d="M97.4,56.85c-1.62,2.34-7.14,3-9.81,4.54-.16-.09-1.04.05-1.34-.57.08-.51,9.6-4.06,11.15-3.97Z"/>
        <path class="cls-5" d="M26.06,61.39c-3.01-1.72-8.73-2.12-9.81-5.3l10.7,4.73c-.17.32-.73.45-.89.57Z"/>
        <path class="cls-5" d="M10.45,68.2c-3.14-2.05-6.99-1.51-8.92-4.92l9.59,3.79c.64.63-.16.88-.67,1.14Z"/>
      </g>
      <path class="cls-5" d="M6.44,36.03c-1.8.7-3.57,1.53-5.35,2.27.57-1.87,3.26-3.14,5.35-2.27Z"/>
    </g>
  </g>
</svg>